Coordinates
version=1
nRows=6
nColumns=63
inDegrees=yes

Units are S.I. units (second, meters, Newtons, ...)
If the header above contains a line with 'inDegrees', this indicates whether rotational values are in degrees (yes) or radians (no).

endheader
time	pelvis_tilt	pelvis_list	pelvis_rotation	pelvis_tx	pelvis_ty	pelvis_tz	hip_flexion_r	hip_adduction_r	hip_rotation_r	knee_angle_r	knee_angle_r_beta	ankle_angle_r	subtalar_angle_r	mtp_angle_r	hip_flexion_l	hip_adduction_l	hip_rotation_l	knee_angle_l	knee_angle_l_beta	ankle_angle_l	subtalar_angle_l	mtp_angle_l	L5_S1_Flex_Ext	L5_S1_Lat_Bending	L5_S1_axial_rotation	L4_L5_Flex_Ext	L4_L5_Lat_Bending	L4_L5_axial_rotation	L3_L4_Flex_Ext	L3_L4_Lat_Bending	L3_L4_axial_rotation	L2_L3_Flex_Ext	L2_L3_Lat_Bending	L2_L3_axial_rotation	L1_L2_Flex_Ext	L1_L2_Lat_Bending	L1_L2_axial_rotation	L1_T12_Flex_Ext	L1_T12_Lat_Bending	L1_T12_axial_rotation	Abs_r3	Abs_r2	Abs_r1	Abs_t1	Abs_t2	neck_flexion	neck_bending	neck_rotation	arm_flex_r	arm_add_r	arm_rot_r	elbow_flex_r	pro_sup_r	wrist_flex_r	wrist_dev_r	arm_flex_l	arm_add_l	arm_rot_l	elbow_flex_l	pro_sup_l	wrist_flex_l	wrist_dev_l
      3.86666667	     -2.32043771	      0.03234885	    101.21066459	      0.23465818	      0.77821375	      0.60608385	     -6.29153985	     -1.98422936	     -3.10186632	      6.31763195	      0.11026348	     10.19673913	     -9.84777613	      0.00000000	     -5.05493149	     -0.90468133	    -10.70653600	      5.24800983	      0.09159505	     12.61118331	     14.73426776	      0.00000000	     -0.27646340	     -0.21768617	     -0.30474630	     -0.51342018	     -0.28952261	     -0.32379294	     -0.45420172	     -0.52928215	     -0.32379294	     -0.31597002	     -0.52928215	     -0.26665301	     -0.25672391	     -0.44390564	     -0.24760637	     -0.15797119	     -0.33719588	     -0.22855972	     -1.97475042	     -2.46250950	     -1.69490748	      0.00000000	      0.00000000	     15.03000549	      0.74307903	    -11.67456613	     29.49312418	    -14.96722094	    -17.91152198	    135.34863149	     87.10722297	    -17.29450710	     25.54715741	     10.88990763	    -12.15731578	    135.36597320	      3.21129049	      2.34310078	     -5.79985695	    -14.38357137
      3.88333333	     -2.11111684	     -0.00517000	    101.08981467	      0.23405000	      0.77762332	      0.60596354	     -6.19655278	     -1.86536586	     -3.07617000	      6.40025382	      0.11170550	     10.28070147	     -9.33094331	      0.00000000	     -4.99334027	     -1.04120124	    -10.49418922	      5.32298559	      0.09290362	     13.17562482	     14.23460766	      0.00000000	     -0.25110949	     -0.15737430	     -0.05722195	     -0.46633543	     -0.20930782	     -0.06079832	     -0.41254778	     -0.38263987	     -0.06079832	     -0.28699304	     -0.38263987	     -0.05006921	     -0.23318027	     -0.32091767	     -0.04649284	     -0.14348396	     -0.24377279	     -0.04291646	     -1.79364997	     -1.78024955	     -0.31825133	      0.00000000	      0.00000000	     15.77692390	     -0.13362427	    -12.02207733	     25.46749128	    -15.76443398	    -16.11762504	    136.28929077	     85.89098450	    -18.63211236	     26.12609351	     11.74929697	    -10.67365334	    139.85264528	      1.59248888	      1.82233995	     -5.73699378	    -17.99323741
      3.90000000	     -1.84314996	     -0.04051961	    101.08464452	      0.23289817	      0.77711641	      0.60656089	     -6.06201018	     -1.69626204	     -3.11765822	      6.44088607	      0.11241467	     10.08166020	     -9.10716320	      0.00000000	     -4.83148906	     -1.22959256	    -10.39718404	      5.50864245	      0.09614395	     13.90187157	     13.92335294	      0.00000000	     -0.23770950	     -0.07469345	      0.14709355	     -0.44145031	     -0.09934228	      0.15628690	     -0.39053294	     -0.18160965	      0.15628690	     -0.27167819	     -0.18160965	      0.12870686	     -0.22073704	     -0.15231488	      0.11951351	     -0.13582721	     -0.11570015	      0.11032016	     -1.69793518	     -0.84494721	      0.81809021	      0.00000000	      0.00000000	     16.42317835	     -1.29118489	    -11.62181345	     21.38850030	    -16.68117524	    -13.90248463	    136.01826384	     85.44940127	    -18.08072750	     25.94303642	     12.99159513	     -9.05687438	    140.87907158	      0.95384865	      1.78507928	     -5.98135825	    -21.04498189
      3.91666667	     -1.15426645	     -0.08822638	    100.23416564	      0.23288342	      0.77682782	      0.60790386	     -5.53584245	     -1.22705005	     -2.63306703	      6.73182030	      0.11749243	     10.14357057	     -8.01923490	      0.00000000	     -4.53294154	     -1.78017066	    -10.53687673	      5.89287533	      0.10285008	     14.69496450	     12.54271330	      0.00000000	     -0.22515612	      0.05473218	      0.51475010	     -0.41813742	      0.07279380	      0.54692198	     -0.36990898	      0.13307583	      0.54692198	     -0.25733093	      0.13307583	      0.45040633	     -0.20907997	      0.11160987	      0.41823445	     -0.12865421	      0.08478015	      0.38606257	     -1.60826763	      0.61914139	      2.86288561	      0.00000000	      0.00000000	     16.65448641	     -3.12848885	    -12.23321002	     17.47458917	    -17.09327891	    -11.88511780	    134.10439080	     84.39534150	    -16.30820254	     23.56760272	     14.88833756	     -7.25434349	    143.52127796	      0.65247506	      1.42741591	     -6.83435878	    -23.32365666
      3.93333333	     -0.79933476	     -0.11526903	     99.51987437	      0.23225009	      0.77740785	      0.60990998	     -5.04747648	     -1.13881943	     -3.00770609	      7.04006177	      0.12287226	     10.17318941	     -6.41445048	      0.00000000	     -4.38481763	     -1.88589590	    -10.00908992	      5.97119043	      0.10421693	     14.90174108	     10.45828646	      0.00000000	     -0.22925157	      0.14468187	      0.96175641	     -0.42574308	      0.19242689	      1.02186619	     -0.37663740	      0.35177950	      1.02186619	     -0.26201161	      0.35177950	      0.84153686	     -0.21288300	      0.29503527	      0.78142708	     -0.13099434	      0.22411222	      0.72131731	     -1.63752100	      1.63667025	      5.34900064	      0.00000000	      0.00000000	     16.26612037	     -4.39498786	    -13.21512926	     13.42199119	    -17.35462688	    -11.57252023	    131.23870940	     83.71697094	    -12.12823828	     20.94430379	     17.56179073	     -5.09487330	    145.95837770	      0.47605585	      1.18391476	     -7.51218584	    -23.94613218
      3.95000000	     -0.14113244	     -0.01176637	     98.99694133	      0.23112697	      0.77845993	      0.61276284	     -4.62166329	     -0.74158359	     -3.92885997	      7.30296223	      0.12746074	     10.30112615	     -4.09129448	      0.00000000	     -4.15933031	     -2.32220836	     -8.91306054	      6.23927315	      0.10889586	     15.07963101	      7.85698896	      0.00000000	     -0.24389635	      0.28394397	      1.44299836	     -0.45293992	      0.37764547	      1.53318575	     -0.40069732	      0.69038136	      1.53318575	     -0.27874914	      0.69038136	      1.26262356	     -0.22648215	      0.57901854	      1.17243616	     -0.13936238	      0.43982920	      1.08224877	     -1.74212726	      3.21203093	      8.02552396	      0.00000000	      0.00000000	     15.46737668	     -6.17038921	    -14.43754655	      9.89035339	    -17.13057163	    -12.57975666	    128.29820283	     84.86295549	     -8.22641476	     19.83713476	     21.02939843	     -2.47580943	    146.59931352	      0.38130365	      1.04457972	     -3.89947283	    -24.25532957
